# xmcd
#
# Track frame offsets:
#	150
#	11060
#	27203
#	40796
#	62639
#	79832
#	94175
#	108368
#	118061
#	132780
#	148098
#	165892
#
# Disc length: 2426 seconds
# Revision: 2
# Processed by: cddbd v1.5.2PL0 Copyright (c) Steve Scherf et al.
# Submitted via: dBpowerAMP V12.0
#
DISCID=9509780c
DTITLE=Chris Jones and The Night Drivers - The Choosing Road
DYEAR=2019
DGENRE=Bluegrass
TTITLE0=Your Remarkable Return
TTITLE1=Letters To Brendan
TTITLE2=Looking For The Bridge
TTITLE3=I Can't Change The Rhyme
TTITLE4=Back In The High Life Again
TTITLE5=Nyhan's Regret
TTITLE6=I'll Watch Her Sail
TTITLE7=Bend In The Road
TTITLE8=I Shouldn't Even Be Here
TTITLE9=Who You Want Me To Be
TTITLE10=Own The Blues
TTITLE11=Glimpse Of The Kingdom
EXTD=
EXTT0=
EXTT1=
EXTT2=
EXTT3=
EXTT4=
EXTT5=
EXTT6=
EXTT7=
EXTT8=
EXTT9=
EXTT10=
EXTT11=
PLAYORDER=
